<?xml version="1.0" encoding="UTF-8"?>
<svg width="56px" height="56px" viewBox="0 0 56 56" version="1.1" xmlns="http://www.w3.org/2000/svg" xmlns:xlink="http://www.w3.org/1999/xlink">
    <!-- Generator: Sketch 59.1 (86144) - https://sketch.com -->
    <title>icon/创建</title>
    <desc>Created with Sketch.</desc>
    <defs>
        <linearGradient x1="0%" y1="66.7264047%" x2="100%" y2="66.7264047%" id="linearGradient-1">
            <stop stop-color="#96ACE0" offset="0%"></stop>
            <stop stop-color="#5F72B4" offset="100%"></stop>
        </linearGradient>
        <linearGradient x1="0%" y1="66.7264047%" x2="100%" y2="66.7264047%" id="linearGradient-2">
            <stop stop-color="#96ACE0" offset="0%"></stop>
            <stop stop-color="#5F72B4" offset="100%"></stop>
        </linearGradient>
    </defs>
    <g id="页面-1" stroke="none" stroke-width="1" fill="none" fill-rule="evenodd">
        <g id="Apple-TV备份" transform="translate(-530.000000, -318.000000)">
            <g id="card" transform="translate(506.000000, 298.000000)">
                <g id="icon/完成">
                    <g transform="translate(24.000000, 20.000000)">
                        <g id="编组-3">
                            <circle id="椭圆形" fill="#FFFFFF" cx="28" cy="28" r="28"></circle>
                            <path d="M14,21.5 L42,21.5 L42,39.5 C42,40.6045695 41.1045695,41.5 40,41.5 L16,41.5 C14.8954305,41.5 14,40.6045695 14,39.5 L14,21.5 L14,21.5 Z" id="矩形" fill="url(#linearGradient-1)"></path>
                            <path d="M16,15 L40,15 C41.1045695,15 42,15.8954305 42,17 L42,20 L42,20 L14,20 L14,17 C14,15.8954305 14.8954305,15 16,15 Z" id="矩形" fill="url(#linearGradient-2)"></path>
                        </g>
                        <g id="编组" transform="translate(20.000000, 25.000000)" fill="#FFFFFF">
                            <rect id="矩形备份-2" transform="translate(4.411212, 7.496627) rotate(-315.000000) translate(-4.411212, -7.496627) " x="0.411212205" y="6.49662658" width="8" height="2" rx="1"></rect>
                            <rect id="矩形备份-2" transform="translate(10.421620, 5.728860) rotate(-45.000000) translate(-10.421620, -5.728860) " x="3.92161985" y="4.72885963" width="13" height="2" rx="1"></rect>
                        </g>
                    </g>
                </g>
            </g>
        </g>
    </g>
</svg>